<?xml version="1.0" encoding="utf-8"?>
<!-- Generator: Adobe Illustrator 22.1.0, SVG Export Plug-In . SVG Version: 6.00 Build 0)  -->
<svg version="1.1" id="圖層_1" xmlns="http://www.w3.org/2000/svg" xmlns:xlink="http://www.w3.org/1999/xlink" x="0px" y="0px"
	 viewBox="0 0 500 500" style="enable-background:new 0 0 500 500;" xml:space="preserve">
<style type="text/css">
	.st0{display:none;fill:none;stroke:#000000;stroke-width:0.25;stroke-miterlimit:10;}
	.st1{display:none;}
	.st2{display:inline;fill:none;stroke:#000000;stroke-width:0.25;stroke-miterlimit:10;}
	.st3{fill:none;stroke:#6F3C32;stroke-width:0.5;stroke-miterlimit:10;}
	.st4{fill:none;stroke:#6F3C32;stroke-width:0.25;stroke-miterlimit:10;}
</style>
<circle class="st0" cx="250" cy="250" r="250"/>
<g class="st1">
	<line class="st2" x1="181.9" y1="250" x2="318.1" y2="250"/>
	<line class="st2" x1="250" y1="318.1" x2="250" y2="181.9"/>
</g>
<line class="st3" x1="249.5" y1="0" x2="249.7" y2="85.9"/>
<line class="st3" x1="124.6" y1="33.7" x2="167.7" y2="108"/>
<line class="st3" x1="33.3" y1="125.4" x2="107.7" y2="168.2"/>
<line class="st3" x1="0" y1="250.5" x2="85.9" y2="250.3"/>
<line class="st3" x1="33.7" y1="375.4" x2="108" y2="332.3"/>
<line class="st3" x1="125.4" y1="466.7" x2="168.2" y2="392.3"/>
<line class="st3" x1="250.5" y1="500" x2="250.3" y2="414.1"/>
<line class="st3" x1="375.4" y1="466.3" x2="332.3" y2="392"/>
<line class="st3" x1="466.7" y1="374.6" x2="392.3" y2="331.8"/>
<line class="st3" x1="500" y1="249.5" x2="414.1" y2="249.7"/>
<line class="st3" x1="466.3" y1="124.6" x2="392" y2="167.7"/>
<line class="st3" x1="374.6" y1="33.3" x2="331.8" y2="107.7"/>
<line class="st4" x1="249.5" y1="0" x2="249.6" y2="9.5"/>
<line class="st4" x1="223.4" y1="1.4" x2="224.4" y2="10.9"/>
<line class="st4" x1="197.6" y1="5.6" x2="199.6" y2="14.9"/>
<line class="st4" x1="172.3" y1="12.4" x2="175.3" y2="21.4"/>
<line class="st4" x1="147.9" y1="21.8" x2="151.8" y2="30.5"/>
<line class="st4" x1="124.6" y1="33.7" x2="129.4" y2="42"/>
<line class="st4" x1="102.7" y1="48" x2="108.3" y2="55.7"/>
<line class="st4" x1="82.4" y1="64.5" x2="88.7" y2="71.6"/>
<line class="st4" x1="63.9" y1="83.1" x2="71" y2="89.4"/>
<line class="st4" x1="47.5" y1="103.4" x2="55.2" y2="109"/>
<line class="st4" x1="21.4" y1="148.7" x2="30.1" y2="152.6"/>
<line class="st4" x1="12.1" y1="173.2" x2="21.1" y2="176.1"/>
<line class="st4" x1="5.4" y1="198.5" x2="14.7" y2="200.4"/>
<line class="st4" x1="1.3" y1="224.3" x2="10.8" y2="225.3"/>
<line class="st4" x1="0" y1="250.5" x2="9.5" y2="250.4"/>
<line class="st4" x1="1.4" y1="276.6" x2="10.9" y2="275.6"/>
<line class="st4" x1="5.6" y1="302.4" x2="14.9" y2="300.4"/>
<line class="st4" x1="12.4" y1="327.7" x2="21.4" y2="324.7"/>
<line class="st4" x1="21.8" y1="352.1" x2="30.5" y2="348.2"/>
<line class="st4" x1="33.7" y1="375.4" x2="42" y2="370.6"/>
<line class="st4" x1="48" y1="397.3" x2="55.7" y2="391.7"/>
<line class="st4" x1="64.5" y1="417.6" x2="71.6" y2="411.3"/>
<line class="st4" x1="83.1" y1="436.1" x2="89.4" y2="429"/>
<line class="st4" x1="103.4" y1="452.5" x2="109" y2="444.8"/>
<line class="st4" x1="125.4" y1="466.7" x2="130.1" y2="458.5"/>
<line class="st4" x1="148.7" y1="478.6" x2="152.6" y2="469.9"/>
<line class="st4" x1="173.2" y1="487.9" x2="176.1" y2="478.9"/>
<line class="st4" x1="198.5" y1="494.6" x2="200.4" y2="485.3"/>
<line class="st4" x1="224.3" y1="498.7" x2="225.3" y2="489.2"/>
<line class="st4" x1="250.5" y1="500" x2="250.4" y2="490.5"/>
<line class="st4" x1="276.6" y1="498.6" x2="275.6" y2="489.1"/>
<line class="st4" x1="302.4" y1="494.4" x2="300.4" y2="485.1"/>
<line class="st4" x1="327.7" y1="487.6" x2="324.7" y2="478.6"/>
<line class="st4" x1="352.1" y1="478.2" x2="348.2" y2="469.5"/>
<line class="st4" x1="375.4" y1="466.3" x2="370.6" y2="458"/>
<line class="st4" x1="397.3" y1="452" x2="391.7" y2="444.3"/>
<line class="st4" x1="417.6" y1="435.5" x2="411.3" y2="428.4"/>
<line class="st4" x1="436.1" y1="416.9" x2="429" y2="410.6"/>
<line class="st4" x1="452.5" y1="396.6" x2="444.8" y2="391"/>
<line class="st4" x1="466.7" y1="374.6" x2="458.5" y2="369.9"/>
<line class="st4" x1="478.6" y1="351.3" x2="469.9" y2="347.4"/>
<line class="st4" x1="487.9" y1="326.8" x2="478.9" y2="323.9"/>
<line class="st4" x1="494.6" y1="301.5" x2="485.3" y2="299.6"/>
<line class="st4" x1="498.7" y1="275.7" x2="489.2" y2="274.7"/>
<line class="st4" x1="500" y1="249.5" x2="490.5" y2="249.6"/>
<line class="st4" x1="498.6" y1="223.4" x2="489.1" y2="224.4"/>
<line class="st4" x1="494.4" y1="197.6" x2="485.1" y2="199.6"/>
<line class="st4" x1="487.6" y1="172.3" x2="478.6" y2="175.3"/>
<line class="st4" x1="478.2" y1="147.9" x2="469.5" y2="151.8"/>
<line class="st4" x1="466.3" y1="124.6" x2="458" y2="129.4"/>
<line class="st4" x1="452" y1="102.7" x2="444.3" y2="108.3"/>
<line class="st4" x1="435.5" y1="82.4" x2="428.4" y2="88.7"/>
<line class="st4" x1="416.9" y1="63.9" x2="410.6" y2="71"/>
<line class="st4" x1="396.6" y1="47.5" x2="391" y2="55.2"/>
<line class="st4" x1="374.6" y1="33.3" x2="369.9" y2="41.5"/>
<line class="st4" x1="351.3" y1="21.4" x2="347.4" y2="30.1"/>
<line class="st4" x1="326.8" y1="12.1" x2="323.9" y2="21.1"/>
<line class="st4" x1="301.5" y1="5.4" x2="299.6" y2="14.7"/>
<line class="st4" x1="275.7" y1="1.3" x2="274.7" y2="10.8"/>
</svg>
